<?xml version="1.0" encoding="UTF-8" standalone="no"?>
<svg
   xmlns:dc="http://purl.org/dc/elements/1.1/"
   xmlns:cc="http://creativecommons.org/ns#"
   xmlns:rdf="http://www.w3.org/1999/02/22-rdf-syntax-ns#"
   xmlns:svg="http://www.w3.org/2000/svg"
   xmlns="http://www.w3.org/2000/svg"
   xmlns:sodipodi="http://sodipodi.sourceforge.net/DTD/sodipodi-0.dtd"
   xmlns:inkscape="http://www.inkscape.org/namespaces/inkscape"
   inkscape:version="1.0 (4035a4fb49, 2020-05-01)"
   sodipodi:docname="logo2.svg"
   viewBox="0 0 399.75635 175.43147"
   id="svg377"
   version="1.1">
  <metadata
     id="metadata383">
    <rdf:RDF>
      <cc:Work
         rdf:about="">
        <dc:format>image/svg+xml</dc:format>
        <dc:type
           rdf:resource="http://purl.org/dc/dcmitype/StillImage" />
        <dc:title></dc:title>
      </cc:Work>
    </rdf:RDF>
  </metadata>
  <defs
     id="defs381" />
  <sodipodi:namedview
     inkscape:current-layer="g385"
     inkscape:window-maximized="0"
     inkscape:window-y="0"
     inkscape:window-x="0"
     inkscape:cy="103.02919"
     inkscape:cx="208.19998"
     inkscape:zoom="2.1049248"
     showgrid="false"
     id="namedview379"
     inkscape:window-height="876"
     inkscape:window-width="1600"
     inkscape:pageshadow="2"
     inkscape:pageopacity="0"
     guidetolerance="10"
     gridtolerance="10"
     objecttolerance="10"
     borderopacity="1"
     bordercolor="#666666"
     pagecolor="#ffffff" />
  <g
     id="g385"
     inkscape:label="Image"
     inkscape:groupmode="layer">
    <path
       id="path1256"
       d="m 387.56138,99.0146 c 0,-0.0254 -0.42031,-0.44569 -0.93401,-0.93401 l -0.93401,-0.88785 0.88784,0.93401 c 0.82486,0.86773 0.98018,1.00842 0.98018,0.88785 z"
       style="fill:#666666;stroke-width:0.162437" />
    <g
       transform="translate(1.7822197,28.581146)"
       id="g1270">
      <path
         style="fill:#666666;stroke-width:0.162437"
         d="m 348.20945,49.154992 c -8.2872,-8.243197 -15.0669,-15.066199 -15.06599,-15.162227 0.002,-0.09603 1.07985,-1.271851 2.39761,-2.612938 3.39399,-3.454054 22.40364,-22.1464749 22.52234,-22.1464749 0.0542,0 2.19968,2.1072219 4.76778,4.6827169 2.56811,2.575497 5.13725,5.07905 5.70924,5.563452 1.02824,0.870814 13.74855,13.808047 17.35347,17.649418 l 1.86466,1.986958 -1.18319,1.342991 c -0.65073,0.738644 -6.15907,6.369658 -12.24071,12.513363 l -11.05755,11.170371 z"
         id="path1262" />
      <path
         style="fill:#2cccfb;fill-opacity:1;stroke-width:0.162437"
         d="m 293.89372,125.56532 c -3.06105,-2.91721 -19.2588,-19.24287 -24.24325,-24.43467 l -1.67758,-1.74738 2.33232,-2.46014 c 1.28277,-1.35308 7.9857,-8.16098 14.8954,-15.12868 L 297.76369,69.1259 295.84028,67.15932 C 294.7824,66.077703 288.2375,59.491219 281.29609,52.522691 274.35467,45.554163 268.51953,39.651169 268.3291,39.404925 l -0.3462,-0.447717 14.88111,-14.895071 14.8811,-14.8950709 9.45602,9.4138539 c 5.20082,5.17762 18.72139,18.65986 30.04574,29.960536 l 20.58971,20.546684 -4.83304,4.84514 c -14.70525,14.7421 -55.25754,55.01581 -55.39635,55.01581 -0.0896,0 -1.76064,-1.5227 -3.71347,-3.38377 z"
         id="path1260" />
      <path
         style="fill:#666666;stroke-width:0.162437"
         d="m 147.59402,99.50746 c -0.0722,-41.742885 0.0186,-114.168282 0.14731,-117.604057 l 0.10804,-2.883249 h 19.89369 c 18.0737,0 19.88466,0.02351 19.79509,0.25694 -0.0542,0.141317 -0.0986,33.911875 -0.0986,75.045685 v 74.788741 h -19.89718 -19.89718 z"
         id="path1258" />
      <path
         style="fill:#666666;stroke-width:0.162437"
         d="m 353.26813,124.27904 c -10.2087,-9.93127 -20.04277,-19.61787 -20.08853,-19.78731 -0.0501,-0.18536 29.61505,-29.6149 30.0014,-29.76316 0.14975,-0.0575 4.53632,4.24735 12.55259,12.31866 l 12.32239,12.40699 -7.53673,7.4784 c -4.1452,4.11312 -10.63415,10.62154 -14.4199,14.46317 -3.78573,3.84162 -7.07029,7.13096 -7.29904,7.30964 -0.22872,0.17868 -0.30182,0.25178 -0.16243,0.16244 0.22125,-0.1418 0.22512,-0.12632 0.0305,0.12183 -0.12262,0.15634 -0.23259,0.28426 -0.24437,0.28426 -0.0119,0 -2.33194,-2.24772 -5.1559,-4.99492 z"
         id="path1254" />
      <path
         style="fill:#666666;stroke-width:0.162437"
         d="m 207.78452,69.21305 0.0408,-60.0609169 19.85786,-0.04125 19.85787,-0.04125 0.0109,4.9955669 c 0.006,2.747562 0.0357,29.793538 0.0659,60.10217 l 0.055,55.1066 h -19.96459 -19.9646 l 0.0408,-60.06091 z"
         id="path1252" />
      <path
         style="fill:#666666;stroke-width:0.162437"
         d="m 26.749188,129.15837 -9.543147,-0.0494 V 54.064541 -20.979846 h 19.979695 19.979696 l 0.02031,15.3502541 c 0.01118,8.442639 0.03858,15.42335 0.06091,15.51269 0.02233,0.08934 0.04975,10.0365479 0.06091,22.1049059 0.01204,13.001075 0.08016,21.920407 0.167183,21.888325 0.08078,-0.02978 2.360577,-2.356683 5.066208,-5.170897 4.894833,-5.091273 28.785374,-30.012034 33.596901,-35.045684 1.387713,-1.451777 2.607774,-2.639594 2.711249,-2.639594 0.219562,0 28.164047,28.054516 28.164047,28.274944 0,0.08157 -6.04873,6.313186 -13.44162,13.848038 -7.3929,7.534849 -14.05215,14.369594 -14.798338,15.188324 l -1.356704,1.48859 11.427772,11.32144 c 6.28528,6.22679 13.01872,12.93387 14.96321,14.90462 l 3.53543,3.58318 -0.10542,14.70051 c -0.058,8.08528 -0.13844,14.73705 -0.17882,14.78172 -0.0404,0.0447 -6.71452,0.0782 -14.83144,0.0744 l -14.75804,-0.007 -19.748915,-19.72451 C 66.858362,98.60591 57.865135,89.67042 57.735316,89.59777 c -0.170472,-0.0954 -0.257009,-0.029 -0.311549,0.23895 -0.04153,0.20407 -0.113915,9.09724 -0.160849,19.76259 -0.04693,10.66536 -0.130661,19.43692 -0.186063,19.4924 -0.11051,0.11062 -15.35496,0.14401 -30.327669,0.0665 z"
         id="path393" />
    </g>
  </g>
</svg>
